<svg width="21" height="21" viewBox="0 0 21 21" fill="none" xmlns="http://www.w3.org/2000/svg">
<path d="M0.133915 7.17893L3.51199 1.05648C3.61375 0.87877 3.7343 0.750786 3.87363 0.672528C4.01218 0.59427 4.16639 0.555142 4.33625 0.555142C4.50611 0.555142 4.66032 0.59427 4.79887 0.672528C4.93742 0.750786 5.05758 0.87877 5.15934 1.05648L8.53741 7.17893C8.63526 7.34686 8.67949 7.51479 8.67009 7.68272C8.6607 7.85065 8.61452 8.00961 8.53154 8.1596C8.45327 8.30797 8.34368 8.42739 8.20278 8.51788C8.06188 8.60836 7.89749 8.65361 7.70963 8.65361H0.960527C0.773443 8.65361 0.609452 8.60836 0.468552 8.51788C0.327652 8.42739 0.218063 8.30797 0.139786 8.1596C0.0575941 8.00879 0.0114103 7.84983 0.00123416 7.68272C-0.00815916 7.51479 0.0360679 7.34686 0.133915 7.17893ZM4.35856 21C3.2024 21 2.22471 20.5843 1.4255 19.7528C0.625498 18.9196 0.2255 17.9047 0.2255 16.708C0.2255 15.4918 0.625498 14.4687 1.4255 13.6389C2.22393 12.809 3.20162 12.3941 4.35856 12.3941C5.51472 12.3941 6.49241 12.8098 7.29162 13.6413C8.09006 14.4744 8.48927 15.493 8.48927 16.697C8.48927 17.9011 8.09006 18.9192 7.29162 19.7515C6.49241 20.5838 5.51472 21 4.35856 21ZM4.35856 19.7772C5.18439 19.7772 5.8838 19.4793 6.45679 18.8834C7.02979 18.2867 7.31628 17.5579 7.31628 16.697C7.31628 15.8362 7.02979 15.1074 6.45679 14.5107C5.8838 13.9148 5.18439 13.6169 4.35856 13.6169C3.53195 13.6169 2.83215 13.9148 2.25915 14.5107C1.68616 15.1066 1.39966 15.835 1.39966 16.6958C1.39966 17.5567 1.68616 18.2854 2.25915 18.8821C2.83215 19.4789 3.53195 19.7768 4.35856 19.776M1.35035 7.43083H7.34329L4.33508 2.0347L1.35035 7.43083ZM11.9448 20.012V13.3796C11.9448 13.1 12.0356 12.8657 12.2172 12.6765C12.3996 12.4874 12.6251 12.3929 12.8936 12.3929H19.2611C19.5296 12.3929 19.7546 12.4874 19.9362 12.6765C20.1186 12.8657 20.2098 13.1 20.2098 13.3796V20.012C20.2098 20.2916 20.1186 20.526 19.9362 20.7151C19.7546 20.9042 19.5296 20.9988 19.2611 20.9988H12.8936C12.6251 20.9988 12.3996 20.9042 12.2172 20.7151C12.0356 20.526 11.9448 20.2916 11.9448 20.012ZM13.119 19.776H19.0356V13.6156H13.119V19.776ZM15.472 8.14615L14.4587 7.28776C13.4396 6.43508 12.6341 5.63986 12.0423 4.90212C11.4505 4.16438 11.1546 3.36957 11.1546 2.5177C11.1546 1.78974 11.384 1.18813 11.8427 0.71288C12.3006 0.237627 12.8842 0 13.5934 0C14.0615 0 14.499 0.119425 14.9061 0.358274C15.3131 0.597939 15.7033 0.957436 16.0767 1.43676C16.4501 0.972109 16.8482 0.616688 17.2709 0.370502C17.6936 0.123501 18.1311 0 18.5836 0C19.2724 0 19.8474 0.250262 20.3084 0.750786C20.7695 1.25131 21 1.86392 21 2.58862C21 3.42419 20.7041 4.2031 20.1123 4.92535C19.5206 5.64761 18.7151 6.43508 17.6959 7.28776L16.6826 8.14615C16.5119 8.30267 16.31 8.38093 16.0767 8.38093C15.8435 8.38093 15.6419 8.30267 15.472 8.14615ZM16.0767 7.06644C17.4411 5.9692 18.4071 5.07942 18.9746 4.39711C19.5421 3.71562 19.8258 3.10993 19.8258 2.58006C19.8258 2.18877 19.7072 1.86515 19.4701 1.60918C19.2329 1.35158 18.9343 1.22278 18.5742 1.22278C18.3213 1.22278 18.0748 1.30226 17.8344 1.46122C17.5941 1.62018 17.2622 1.92099 16.8388 2.36363L16.0767 3.14132L15.3159 2.36363C14.8767 1.9055 14.5417 1.60102 14.3108 1.45022C14.0791 1.29859 13.8356 1.22278 13.5805 1.22278C13.2047 1.22278 12.9022 1.33976 12.6728 1.57372C12.4435 1.80686 12.3288 2.12641 12.3288 2.53237C12.3288 3.09404 12.6125 3.71562 13.1801 4.39711C13.7476 5.07942 14.7131 5.9692 16.0767 7.06644Z" fill="#FF9500"/>
</svg>
