<svg width="28" height="28" viewBox="0 0 28 28" fill="none" xmlns="http://www.w3.org/2000/svg">
<path fill-rule="evenodd" clip-rule="evenodd" d="M14.9333 0H13.0667V6.0514V12.8876V12.902H11.5821L11.5845 12.9044H0L7.12077e-06 14.7593H13.0667V17.2514V28H14.9333V17.2514V14.7593H28L28 12.9044H16.4155L16.4179 12.902H14.9333V12.8876V6.0514V0ZM15.6447 11.0353H18.2846L24.5595 4.76046L23.2395 3.44053L15.6447 11.0353ZM3.44054 23.2395L10.0541 16.626H12.6939L4.76048 24.5594L3.44054 23.2395ZM23.2395 24.5594L15.3061 16.626H17.9459L24.5595 23.2395L23.2395 24.5594ZM9.71542 11.0353H12.3553L4.76048 3.44053L3.44054 4.76046L9.71542 11.0353Z" fill="#F0F0F9"/>
</svg>
