<svg width="271" height="155" viewBox="0 0 271 155" fill="none" xmlns="http://www.w3.org/2000/svg">
<path d="M180.605 137.74H181.865V139.975H180.605V137.74ZM186.545 129.61H187.79V143.17H186.545V129.61ZM176.99 140.59L176.825 139.555C179.39 139.54 182.765 139.51 185.69 139.135L185.78 140.05C182.765 140.56 179.495 140.59 176.99 140.59ZM177.11 131.26H185.345V132.265H177.11V131.26ZM181.22 133.045C183.17 133.045 184.49 134.035 184.49 135.55C184.49 137.08 183.17 138.055 181.22 138.055C179.285 138.055 177.965 137.08 177.965 135.55C177.965 134.035 179.285 133.045 181.22 133.045ZM181.22 134.005C180.005 134.005 179.15 134.62 179.15 135.55C179.15 136.48 180.005 137.095 181.22 137.095C182.45 137.095 183.305 136.48 183.305 135.55C183.305 134.62 182.45 134.005 181.22 134.005ZM180.605 129.61H181.85V131.815H180.605V129.61ZM194.389 136.435H195.634V139.45H194.389V136.435ZM200.404 129.61H201.649V139.93H200.404V129.61ZM192.394 141.85H201.979V142.87H192.394V141.85ZM192.394 138.925H193.639V142.135H192.394V138.925ZM190.639 136.9L190.474 135.88C192.979 135.88 196.339 135.85 199.219 135.475L199.309 136.39C196.384 136.855 193.099 136.9 190.639 136.9ZM197.644 137.62H200.719V138.535H197.644V137.62ZM194.884 130.165C196.864 130.165 198.214 131.095 198.214 132.52C198.214 133.96 196.864 134.89 194.884 134.89C192.889 134.89 191.539 133.96 191.539 132.52C191.539 131.095 192.889 130.165 194.884 130.165ZM194.884 131.095C193.609 131.095 192.724 131.65 192.724 132.52C192.724 133.39 193.609 133.945 194.884 133.945C196.144 133.945 197.029 133.39 197.029 132.52C197.029 131.65 196.144 131.095 194.884 131.095ZM213.513 129.595H214.773V143.17H213.513V129.595ZM214.428 135.1H216.933V136.135H214.428V135.1ZM210.048 131.065H211.263C211.263 134.92 209.493 138.4 205.113 140.605L204.423 139.645C208.173 137.74 210.048 134.845 210.048 131.26V131.065ZM205.053 131.065H210.693V132.085H205.053V131.065ZM228.001 129.61H229.261V136.885H228.001V129.61ZM220.516 137.56H221.746V139.21H228.031V137.56H229.261V142.99H220.516V137.56ZM221.746 140.2V141.985H228.031V140.2H221.746ZM221.986 130.255C224.041 130.255 225.511 131.53 225.511 133.375C225.511 135.235 224.041 136.51 221.986 136.51C219.931 136.51 218.446 135.235 218.446 133.375C218.446 131.53 219.931 130.255 221.986 130.255ZM221.986 131.29C220.636 131.29 219.661 132.145 219.661 133.375C219.661 134.605 220.636 135.46 221.986 135.46C223.336 135.46 224.311 134.605 224.311 133.375C224.311 132.145 223.336 131.29 221.986 131.29Z" fill="#5D5D5D"/>
<path d="M18.2181 95.7549C17.2871 95.7549 16.5799 95.5311 16.0965 95.0835C15.6131 94.6538 15.3625 94.1077 15.3446 93.4453C15.3267 92.8008 15.5505 92.1652 16.016 91.5386C16.4278 91.0194 16.9201 90.348 17.493 89.5244C18.0659 88.7188 18.6389 87.8683 19.2118 86.9731C19.7847 86.078 20.277 85.2365 20.6888 84.4487C17.86 83.1418 15.3804 81.4409 13.2499 79.3462C11.1372 77.2515 9.49009 74.8882 8.30845 72.2563C7.14472 69.6245 6.56285 66.8405 6.56285 63.9043C6.56285 60.5205 7.34166 57.3516 8.89927 54.3975C10.4748 51.4434 12.6501 48.8563 15.4252 46.6362C18.2181 44.3983 21.4587 42.6527 25.1468 41.3994C28.835 40.1283 32.7917 39.4927 37.0169 39.4927C41.2422 39.4927 45.1989 40.1283 48.8871 41.3994C52.5752 42.6527 55.8068 44.3983 58.5819 46.6362C61.3749 48.8563 63.5502 51.4434 65.1078 54.3975C66.6833 57.3516 67.4711 60.5205 67.4711 63.9043C67.4711 66.7152 66.9339 69.3739 65.8597 71.8804C64.8034 74.369 63.2905 76.6338 61.3211 78.6748C59.3697 80.7158 57.0332 82.4704 54.3119 83.9385C51.6084 85.3887 48.6006 86.4897 45.2884 87.2417C41.9763 87.9937 38.4492 88.3159 34.7074 88.2085C32.8991 89.5155 30.9476 90.7419 28.8529 91.8877C26.7582 93.0335 24.7619 93.9645 22.8641 94.6807C20.9663 95.3968 19.4177 95.7549 18.2181 95.7549ZM21.0379 91.2969C21.8436 90.9567 22.8641 90.4375 24.0995 89.7393C25.3348 89.041 26.6149 88.2622 27.9398 87.4028C29.2647 86.5614 30.4732 85.7467 31.5653 84.959C32.0666 84.5651 32.55 84.2786 33.0155 84.0996C33.4989 83.9027 34.0181 83.8042 34.5731 83.8042C35.1102 83.8221 35.5847 83.84 35.9964 83.8579C36.4082 83.8579 36.7484 83.8579 37.0169 83.8579C40.6335 83.8579 44.0173 83.3387 47.1683 82.3003C50.3194 81.2619 53.0765 79.8296 55.4398 78.0034C57.821 76.1772 59.683 74.0557 61.0257 71.6387C62.3685 69.2217 63.0399 66.6436 63.0399 63.9043C63.0399 61.1471 62.3685 58.569 61.0257 56.1699C59.683 53.7529 57.821 51.6313 55.4398 49.8052C53.0765 47.9611 50.3194 46.5199 47.1683 45.4814C44.0173 44.443 40.6335 43.9238 37.0169 43.9238C33.4004 43.9238 30.0166 44.443 26.8656 45.4814C23.7145 46.5199 20.9484 47.9611 18.5672 49.8052C16.204 51.6313 14.3509 53.7529 13.0082 56.1699C11.6833 58.569 11.0209 61.1471 11.0209 63.9043C11.0209 66.2855 11.5401 68.5503 12.5785 70.6987C13.6169 72.8472 15.1208 74.8166 17.0902 76.6069C19.0775 78.3794 21.4766 79.9191 24.2875 81.2261C25.1468 81.6379 25.6481 82.1392 25.7914 82.73C25.9346 83.3208 25.8182 83.9653 25.4422 84.6636C24.9767 85.5229 24.2875 86.5614 23.3744 87.7788C22.4613 89.0142 21.6288 90.0973 20.8768 91.0283C20.8052 91.1178 20.7873 91.1895 20.8231 91.2432C20.8589 91.3148 20.9305 91.3327 21.0379 91.2969Z" fill="#FF9500"/>
<path d="M71.5445 91.402C72.4755 91.402 73.1827 91.1782 73.6661 90.7306C74.1495 90.3009 74.4002 89.7548 74.4181 89.0924C74.436 88.4479 74.2122 87.8123 73.7467 87.1857C73.3349 86.6665 72.8425 85.9951 72.2696 85.1715C71.6967 84.3658 71.1238 83.5154 70.5509 82.6202C69.978 81.7251 69.4856 80.8836 69.0738 80.0958C71.9026 78.7889 74.3822 77.088 76.5128 74.9933C78.6254 72.8986 80.2725 70.5353 81.4542 67.9034C82.6179 65.2716 83.1998 62.4876 83.1998 59.5514C83.1998 56.1676 82.421 52.9987 80.8634 50.0446C79.2878 47.0905 77.1126 44.5034 74.3375 42.2833C71.5445 40.0454 68.304 38.2998 64.6158 37.0465C60.9277 35.7753 56.971 35.1398 52.7457 35.1398C48.5204 35.1398 44.5637 35.7753 40.8756 37.0465C37.1874 38.2998 33.9558 40.0454 31.1808 42.2833C28.3878 44.5034 26.2125 47.0905 24.6549 50.0446C23.0794 52.9987 22.2916 56.1676 22.2916 59.5514C22.2916 62.3623 22.8287 65.021 23.9029 67.5275C24.9592 70.0161 26.4721 72.2809 28.4415 74.3219C30.393 76.3629 32.7294 78.1175 35.4508 79.5856C38.1542 81.0358 41.162 82.1368 44.4742 82.8888C47.7864 83.6407 51.3134 83.963 55.0553 83.8556C56.8635 85.1626 58.815 86.389 60.9098 87.5348C63.0045 88.6806 65.0007 89.6116 66.8985 90.3278C68.7963 91.0439 70.345 91.402 71.5445 91.402ZM68.7247 86.944C67.919 86.6038 66.8985 86.0846 65.6632 85.3864C64.4278 84.6881 63.1477 83.9093 61.8228 83.0499C60.498 82.2085 59.2895 81.3938 58.1974 80.6061C57.6961 80.2122 57.2127 79.9257 56.7472 79.7467C56.2638 79.5498 55.7446 79.4513 55.1895 79.4513C54.6524 79.4692 54.178 79.4871 53.7662 79.505C53.3544 79.505 53.0142 79.505 52.7457 79.505C49.1292 79.505 45.7454 78.9858 42.5943 77.9474C39.4433 76.909 36.6861 75.4767 34.3228 73.6505C31.9417 71.8243 30.0797 69.7028 28.7369 67.2858C27.3941 64.8688 26.7227 62.2906 26.7227 59.5514C26.7227 56.7942 27.3941 54.2161 28.7369 51.817C30.0797 49.4 31.9417 47.2784 34.3228 45.4523C36.6861 43.6082 39.4433 42.167 42.5943 41.1285C45.7454 40.0901 49.1292 39.5709 52.7457 39.5709C56.3622 39.5709 59.746 40.0901 62.8971 41.1285C66.0481 42.167 68.8142 43.6082 71.1954 45.4523C73.5587 47.2784 75.4117 49.4 76.7545 51.817C78.0794 54.2161 78.7418 56.7942 78.7418 59.5514C78.7418 61.9326 78.2226 64.1974 77.1842 66.3458C76.1458 68.4943 74.6419 70.4637 72.6725 72.254C70.6851 74.0265 68.2861 75.5662 65.4752 76.8732C64.6158 77.285 64.1145 77.7863 63.9713 78.3771C63.828 78.9679 63.9444 79.6124 64.3204 80.3107C64.7859 81.17 65.4752 82.2085 66.3883 83.4259C67.3014 84.6613 68.1339 85.7444 68.8858 86.6754C68.9574 86.7649 68.9753 86.8365 68.9395 86.8903C68.9037 86.9619 68.8321 86.9798 68.7247 86.944Z" fill="#FF9500"/>
<ellipse cx="37" cy="64.147" rx="26" ry="20.5" fill="white"/>
<circle cx="21" cy="63.647" r="4.75" fill="white" stroke="#FF9500" stroke-width="2.5"/>
<circle cx="38" cy="63.647" r="4.75" fill="white" stroke="#FF9500" stroke-width="2.5"/>
<path d="M58.75 63.647C58.75 66.2704 56.6234 68.397 54 68.397C51.3766 68.397 49.25 66.2704 49.25 63.647C49.25 61.0237 51.3766 58.897 54 58.897C56.6234 58.897 58.75 61.0237 58.75 63.647Z" fill="white" stroke="#FF9500" stroke-width="2.5"/>
<path d="M7.44 114.96V113.44H29.32V114.96H19.24V142H17.48V114.96H7.44ZM26.1941 131.72C26.1941 130.253 26.3941 128.88 26.7941 127.6C27.2207 126.293 27.8341 125.147 28.6341 124.16C29.4341 123.173 30.4207 122.4 31.5941 121.84C32.7674 121.253 34.1141 120.96 35.6341 120.96C37.1541 120.96 38.5007 121.253 39.6741 121.84C40.8474 122.4 41.8341 123.173 42.6341 124.16C43.4341 125.147 44.0341 126.293 44.4341 127.6C44.8607 128.88 45.0741 130.253 45.0741 131.72C45.0741 133.187 44.8607 134.573 44.4341 135.88C44.0341 137.187 43.4341 138.333 42.6341 139.32C41.8341 140.28 40.8474 141.053 39.6741 141.64C38.5007 142.2 37.1541 142.48 35.6341 142.48C34.1141 142.48 32.7674 142.2 31.5941 141.64C30.4207 141.053 29.4341 140.28 28.6341 139.32C27.8341 138.333 27.2207 137.187 26.7941 135.88C26.3941 134.573 26.1941 133.187 26.1941 131.72ZM27.7141 131.72C27.7141 132.947 27.8874 134.133 28.2341 135.28C28.5807 136.4 29.0874 137.4 29.7541 138.28C30.4207 139.16 31.2474 139.867 32.2341 140.4C33.2207 140.907 34.3541 141.16 35.6341 141.16C36.9141 141.16 38.0474 140.907 39.0341 140.4C40.0207 139.867 40.8474 139.16 41.5141 138.28C42.1807 137.4 42.6874 136.4 43.0341 135.28C43.3807 134.133 43.5541 132.947 43.5541 131.72C43.5541 130.493 43.3807 129.32 43.0341 128.2C42.6874 127.053 42.1807 126.04 41.5141 125.16C40.8474 124.28 40.0207 123.587 39.0341 123.08C38.0474 122.547 36.9141 122.28 35.6341 122.28C34.3541 122.28 33.2207 122.547 32.2341 123.08C31.2474 123.587 30.4207 124.28 29.7541 125.16C29.0874 126.04 28.5807 127.053 28.2341 128.2C27.8874 129.32 27.7141 130.493 27.7141 131.72ZM47.6784 131.72C47.6784 130.253 47.8784 128.88 48.2784 127.6C48.7051 126.293 49.3184 125.147 50.1184 124.16C50.9184 123.173 51.9051 122.4 53.0784 121.84C54.2518 121.253 55.5984 120.96 57.1184 120.96C58.6384 120.96 59.9851 121.253 61.1584 121.84C62.3318 122.4 63.3184 123.173 64.1184 124.16C64.9184 125.147 65.5184 126.293 65.9184 127.6C66.3451 128.88 66.5584 130.253 66.5584 131.72C66.5584 133.187 66.3451 134.573 65.9184 135.88C65.5184 137.187 64.9184 138.333 64.1184 139.32C63.3184 140.28 62.3318 141.053 61.1584 141.64C59.9851 142.2 58.6384 142.48 57.1184 142.48C55.5984 142.48 54.2518 142.2 53.0784 141.64C51.9051 141.053 50.9184 140.28 50.1184 139.32C49.3184 138.333 48.7051 137.187 48.2784 135.88C47.8784 134.573 47.6784 133.187 47.6784 131.72ZM49.1984 131.72C49.1984 132.947 49.3718 134.133 49.7184 135.28C50.0651 136.4 50.5718 137.4 51.2384 138.28C51.9051 139.16 52.7318 139.867 53.7184 140.4C54.7051 140.907 55.8384 141.16 57.1184 141.16C58.3984 141.16 59.5318 140.907 60.5184 140.4C61.5051 139.867 62.3318 139.16 62.9984 138.28C63.6651 137.4 64.1718 136.4 64.5184 135.28C64.8651 134.133 65.0384 132.947 65.0384 131.72C65.0384 130.493 64.8651 129.32 64.5184 128.2C64.1718 127.053 63.6651 126.04 62.9984 125.16C62.3318 124.28 61.5051 123.587 60.5184 123.08C59.5318 122.547 58.3984 122.28 57.1184 122.28C55.8384 122.28 54.7051 122.547 53.7184 123.08C52.7318 123.587 51.9051 124.28 51.2384 125.16C50.5718 126.04 50.0651 127.053 49.7184 128.2C49.3718 129.32 49.1984 130.493 49.1984 131.72ZM70.2028 113.44H71.7228V132.36L84.4028 121.44H86.6028L77.6028 129.12L87.2428 142H85.1628L76.4028 130.28L71.7228 134.24V142H70.2028V113.44ZM96.9712 114.96V113.44H118.851V114.96H108.771V142H107.011V114.96H96.9712ZM130.325 137.92H130.245C130.005 138.533 129.659 139.12 129.205 139.68C128.752 140.213 128.192 140.693 127.525 141.12C126.885 141.547 126.152 141.88 125.325 142.12C124.499 142.36 123.592 142.48 122.605 142.48C120.419 142.48 118.725 142.013 117.525 141.08C116.325 140.12 115.725 138.653 115.725 136.68C115.725 135.48 115.965 134.507 116.445 133.76C116.925 132.987 117.525 132.387 118.245 131.96C118.992 131.507 119.805 131.187 120.685 131C121.592 130.813 122.459 130.68 123.285 130.6L125.645 130.4C126.739 130.32 127.592 130.2 128.205 130.04C128.845 129.853 129.325 129.613 129.645 129.32C129.965 129 130.165 128.6 130.245 128.12C130.325 127.64 130.365 127.04 130.365 126.32C130.365 125.76 130.259 125.24 130.045 124.76C129.832 124.28 129.499 123.853 129.045 123.48C128.592 123.107 128.005 122.813 127.285 122.6C126.565 122.387 125.685 122.28 124.645 122.28C122.805 122.28 121.312 122.733 120.165 123.64C119.045 124.547 118.432 125.92 118.325 127.76H116.805C116.912 125.493 117.632 123.8 118.965 122.68C120.325 121.533 122.245 120.96 124.725 120.96C127.205 120.96 129.005 121.453 130.125 122.44C131.272 123.4 131.845 124.667 131.845 126.24V138.2C131.845 138.493 131.845 138.787 131.845 139.08C131.872 139.373 131.925 139.64 132.005 139.88C132.085 140.12 132.219 140.32 132.405 140.48C132.592 140.613 132.859 140.68 133.205 140.68C133.472 140.68 133.845 140.64 134.325 140.56V141.84C133.925 141.947 133.512 142 133.085 142C132.472 142 131.979 141.92 131.605 141.76C131.259 141.6 130.992 141.387 130.805 141.12C130.619 140.853 130.485 140.547 130.405 140.2C130.352 139.827 130.325 139.427 130.325 139V137.92ZM130.325 130.32C129.952 130.773 129.379 131.08 128.605 131.24C127.859 131.4 127.019 131.52 126.085 131.6L123.525 131.84C122.779 131.92 122.032 132.04 121.285 132.2C120.539 132.333 119.859 132.573 119.245 132.92C118.659 133.267 118.179 133.747 117.805 134.36C117.432 134.947 117.245 135.72 117.245 136.68C117.245 138.2 117.725 139.333 118.685 140.08C119.645 140.8 120.965 141.16 122.645 141.16C124.379 141.16 125.752 140.853 126.765 140.24C127.779 139.6 128.552 138.88 129.085 138.08C129.619 137.253 129.952 136.467 130.085 135.72C130.245 134.947 130.325 134.427 130.325 134.16V130.32ZM138.565 113.44V142H137.045V113.44H138.565ZM143.484 113.44H145.004V132.36L157.684 121.44H159.884L150.884 129.12L160.524 142H158.444L149.684 130.28L145.004 134.24V142H143.484V113.44Z" fill="#484848"/>
</svg>
