<svg width="390" height="259" viewBox="0 0 390 259" fill="none" xmlns="http://www.w3.org/2000/svg">
<path d="M182.303 67.5654C180.88 68.2909 179.746 68.8823 177.524 70.1993C171.72 73.6391 174.676 70.3511 174.676 68.7484C175.388 67.2974 177.946 66.7059 176.522 65.2549C178.488 65.2549 181.592 66.1144 182.303 67.5654Z" fill="white"/>
<path d="M195.407 67.126C197.584 67.9413 199.318 68.6061 202.715 70.0861C211.589 73.9518 207.069 70.2567 207.069 68.4555C205.981 66.8248 202.07 66.1601 204.247 64.5294C201.241 64.5294 196.495 65.4953 195.407 67.126Z" fill="white"/>
<ellipse cx="194.695" cy="52.9216" rx="16.3729" ry="13.0588" fill="white"/>
<path d="M138.32 144.918C136.628 144.918 135.342 144.511 134.463 143.697C133.584 142.916 133.128 141.923 133.096 140.719C133.063 139.547 133.47 138.391 134.316 137.252C135.065 136.308 135.96 135.087 137.002 133.59C138.044 132.125 139.085 130.579 140.127 128.951C141.169 127.324 142.064 125.794 142.812 124.361C137.669 121.985 133.161 118.893 129.287 115.084C125.446 111.275 122.451 106.979 120.303 102.193C118.187 97.4082 117.129 92.3464 117.129 87.0078C117.129 80.8555 118.545 75.0938 121.377 69.7227C124.242 64.3516 128.197 59.6478 133.242 55.6113C138.32 51.5423 144.212 48.3685 150.918 46.0898C157.624 43.7786 164.818 42.623 172.5 42.623C180.182 42.623 187.376 43.7786 194.082 46.0898C200.788 48.3685 206.663 51.5423 211.709 55.6113C216.787 59.6478 220.742 64.3516 223.574 69.7227C226.439 75.0938 227.871 80.8555 227.871 87.0078C227.871 92.1185 226.895 96.9525 224.941 101.51C223.021 106.035 220.27 110.152 216.689 113.863C213.141 117.574 208.893 120.764 203.945 123.434C199.03 126.07 193.561 128.072 187.539 129.439C181.517 130.807 175.104 131.393 168.301 131.197C165.013 133.574 161.465 135.803 157.656 137.887C153.848 139.97 150.218 141.663 146.768 142.965C143.317 144.267 140.501 144.918 138.32 144.918ZM143.447 136.812C144.912 136.194 146.768 135.25 149.014 133.98C151.26 132.711 153.587 131.295 155.996 129.732C158.405 128.202 160.602 126.721 162.588 125.289C163.499 124.573 164.378 124.052 165.225 123.727C166.104 123.368 167.048 123.189 168.057 123.189C169.033 123.222 169.896 123.255 170.645 123.287C171.393 123.287 172.012 123.287 172.5 123.287C179.076 123.287 185.228 122.343 190.957 120.455C196.686 118.567 201.699 115.963 205.996 112.643C210.326 109.322 213.711 105.465 216.152 101.07C218.594 96.6758 219.814 91.9883 219.814 87.0078C219.814 81.9948 218.594 77.3073 216.152 72.9453C213.711 68.5508 210.326 64.6934 205.996 61.373C201.699 58.0202 196.686 55.3997 190.957 53.5117C185.228 51.6237 179.076 50.6797 172.5 50.6797C165.924 50.6797 159.772 51.6237 154.043 53.5117C148.314 55.3997 143.285 58.0202 138.955 61.373C134.658 64.6934 131.289 68.5508 128.848 72.9453C126.439 77.3073 125.234 81.9948 125.234 87.0078C125.234 91.3372 126.178 95.4551 128.066 99.3613C129.954 103.268 132.689 106.848 136.27 110.104C139.883 113.326 144.245 116.126 149.355 118.502C150.918 119.251 151.829 120.162 152.09 121.236C152.35 122.311 152.139 123.482 151.455 124.752C150.609 126.314 149.355 128.202 147.695 130.416C146.035 132.662 144.521 134.632 143.154 136.324C143.024 136.487 142.992 136.617 143.057 136.715C143.122 136.845 143.252 136.878 143.447 136.812Z" fill="#F9EEDE"/>
<path d="M233.925 135.565C235.618 135.565 236.904 135.158 237.783 134.344C238.662 133.563 239.117 132.57 239.15 131.366C239.183 130.194 238.776 129.038 237.929 127.899C237.181 126.955 236.285 125.734 235.244 124.237C234.202 122.772 233.16 121.226 232.119 119.598C231.077 117.971 230.182 116.441 229.433 115.008C234.576 112.632 239.085 109.54 242.959 105.731C246.8 101.922 249.795 97.6256 251.943 92.8404C254.059 88.0553 255.117 82.9934 255.117 77.6549C255.117 71.5025 253.701 65.7408 250.869 60.3697C248.004 54.9986 244.049 50.2949 239.004 46.2584C233.925 42.1894 228.034 39.0156 221.328 36.7369C214.622 34.4257 207.428 33.2701 199.746 33.2701C192.063 33.2701 184.869 34.4257 178.164 36.7369C171.458 39.0156 165.582 42.1894 160.537 46.2584C155.459 50.2949 151.504 54.9986 148.672 60.3697C145.807 65.7408 144.375 71.5025 144.375 77.6549C144.375 82.7656 145.351 87.5995 147.304 92.1568C149.225 96.6816 151.976 100.799 155.556 104.51C159.104 108.221 163.353 111.411 168.3 114.081C173.216 116.717 178.685 118.719 184.707 120.087C190.729 121.454 197.142 122.04 203.945 121.844C207.233 124.221 210.781 126.45 214.59 128.534C218.398 130.617 222.028 132.31 225.478 133.612C228.929 134.914 231.744 135.565 233.925 135.565ZM228.798 127.46C227.334 126.841 225.478 125.897 223.232 124.628C220.986 123.358 218.659 121.942 216.25 120.379C213.841 118.85 211.644 117.368 209.658 115.936C208.746 115.22 207.867 114.699 207.021 114.374C206.142 114.016 205.198 113.837 204.189 113.837C203.213 113.869 202.35 113.902 201.601 113.934C200.853 113.934 200.234 113.934 199.746 113.934C193.17 113.934 187.018 112.99 181.289 111.102C175.56 109.214 170.547 106.61 166.25 103.29C161.92 99.9693 158.535 96.1119 156.093 91.7174C153.652 87.3228 152.431 82.6353 152.431 77.6549C152.431 72.6419 153.652 67.9544 156.093 63.5924C158.535 59.1978 161.92 55.3404 166.25 52.0201C170.547 48.6672 175.56 46.0468 181.289 44.1588C187.018 42.2708 193.17 41.3268 199.746 41.3268C206.321 41.3268 212.474 42.2708 218.203 44.1588C223.932 46.0468 228.961 48.6672 233.291 52.0201C237.588 55.3404 240.957 59.1978 243.398 63.5924C245.807 67.9544 247.011 72.6419 247.011 77.6549C247.011 81.9843 246.067 86.1021 244.179 90.0084C242.291 93.9146 239.557 97.4954 235.976 100.751C232.363 103.973 228.001 106.773 222.89 109.149C221.328 109.898 220.416 110.809 220.156 111.883C219.895 112.958 220.107 114.129 220.791 115.399C221.637 116.962 222.89 118.85 224.55 121.063C226.211 123.309 227.724 125.279 229.091 126.971C229.222 127.134 229.254 127.264 229.189 127.362C229.124 127.492 228.994 127.525 228.798 127.46Z" fill="#F9EEDE"/>
<ellipse cx="171.5" cy="88" rx="47.5" ry="37" fill="white"/>
<circle cx="145" cy="87" r="8.5" fill="white" stroke="#F9EEDE" stroke-width="3"/>
<circle cx="173" cy="87" r="8.5" fill="white" stroke="#F9EEDE" stroke-width="3"/>
<circle cx="200" cy="87" r="8.5" fill="white" stroke="#F9EEDE" stroke-width="3"/>
<path d="M-126.78 248H-139.38V159.1H-170.6V148.04H-95.7V159.1H-126.78V248ZM-26.9108 210.34C-26.9108 216.593 -27.7508 222.147 -29.4308 227C-31.0174 231.76 -33.3508 235.82 -36.4308 239.18C-39.4174 242.54 -43.1041 245.107 -47.4908 246.88C-51.7841 248.56 -56.5908 249.4 -61.9108 249.4C-66.8574 249.4 -71.4308 248.56 -75.6308 246.88C-79.8308 245.107 -83.4708 242.54 -86.5508 239.18C-89.6308 235.82 -92.0574 231.76 -93.8308 227C-95.5108 222.147 -96.3508 216.593 -96.3508 210.34C-96.3508 202.033 -94.9508 195.033 -92.1508 189.34C-89.3508 183.553 -85.3374 179.167 -80.1108 176.18C-74.8841 173.1 -68.6774 171.56 -61.4908 171.56C-54.6774 171.56 -48.7041 173.1 -43.5708 176.18C-38.3441 179.167 -34.2841 183.553 -31.3908 189.34C-28.4041 195.033 -26.9108 202.033 -26.9108 210.34ZM-83.6108 210.34C-83.6108 216.22 -82.8641 221.353 -81.3708 225.74C-79.7841 230.033 -77.3574 233.347 -74.0908 235.68C-70.8241 238.013 -66.6708 239.18 -61.6308 239.18C-56.5908 239.18 -52.4374 238.013 -49.1708 235.68C-45.9041 233.347 -43.5241 230.033 -42.0308 225.74C-40.4441 221.353 -39.6508 216.22 -39.6508 210.34C-39.6508 204.367 -40.4441 199.28 -42.0308 195.08C-43.6174 190.88 -46.0441 187.66 -49.3108 185.42C-52.4841 183.087 -56.6374 181.92 -61.7708 181.92C-69.4241 181.92 -74.9774 184.44 -78.4308 189.48C-81.8841 194.52 -83.6108 201.473 -83.6108 210.34ZM57.8548 210.34C57.8548 216.593 57.0148 222.147 55.3349 227C53.7482 231.76 51.4148 235.82 48.3348 239.18C45.3482 242.54 41.6615 245.107 37.2748 246.88C32.9815 248.56 28.1748 249.4 22.8548 249.4C17.9082 249.4 13.3348 248.56 9.13485 246.88C4.93484 245.107 1.29484 242.54 -1.78516 239.18C-4.86516 235.82 -7.29182 231.76 -9.06516 227C-10.7452 222.147 -11.5852 216.593 -11.5852 210.34C-11.5852 202.033 -10.1852 195.033 -7.38516 189.34C-4.58516 183.553 -0.571823 179.167 4.65484 176.18C9.88151 173.1 16.0882 171.56 23.2748 171.56C30.0882 171.56 36.0615 173.1 41.1948 176.18C46.4215 179.167 50.4815 183.553 53.3749 189.34C56.3615 195.033 57.8548 202.033 57.8548 210.34ZM1.15485 210.34C1.15485 216.22 1.90151 221.353 3.39484 225.74C4.98151 230.033 7.40818 233.347 10.6748 235.68C13.9415 238.013 18.0948 239.18 23.1348 239.18C28.1748 239.18 32.3282 238.013 35.5948 235.68C38.8615 233.347 41.2415 230.033 42.7348 225.74C44.3215 221.353 45.1148 216.22 45.1148 210.34C45.1148 204.367 44.3215 199.28 42.7348 195.08C41.1482 190.88 38.7215 187.66 35.4548 185.42C32.2815 183.087 28.1282 181.92 22.9948 181.92C15.3415 181.92 9.78818 184.44 6.33485 189.48C2.88151 194.52 1.15485 201.473 1.15485 210.34ZM89.5605 197.18C89.5605 198.673 89.4671 200.633 89.2805 203.06C89.1871 205.487 89.0938 207.587 89.0005 209.36H89.5605C90.1205 208.613 90.9605 207.54 92.0805 206.14C93.2005 204.74 94.3205 203.34 95.4405 201.94C96.6538 200.447 97.6805 199.233 98.5205 198.3L122.46 172.96H136.88L106.5 205.02L138.98 248H124.14L98.1005 213L89.5605 220.42V248H77.3805V141.6H89.5605V197.18ZM233.337 248H220.737V159.1H189.517V148.04H264.417V159.1H233.337V248ZM295.019 171.7C304.166 171.7 310.933 173.707 315.319 177.72C319.706 181.733 321.899 188.127 321.899 196.9V248H312.939L310.559 237.36H309.999C307.853 240.067 305.613 242.353 303.279 244.22C301.039 245.993 298.426 247.3 295.439 248.14C292.546 248.98 288.999 249.4 284.799 249.4C280.319 249.4 276.259 248.607 272.619 247.02C269.073 245.433 266.273 243.007 264.219 239.74C262.166 236.38 261.139 232.18 261.139 227.14C261.139 219.673 264.079 213.933 269.959 209.92C275.839 205.813 284.893 203.573 297.119 203.2L309.859 202.78V198.3C309.859 192.047 308.506 187.707 305.799 185.28C303.093 182.853 299.266 181.64 294.319 181.64C290.399 181.64 286.666 182.247 283.119 183.46C279.573 184.58 276.259 185.887 273.179 187.38L269.399 178.14C272.666 176.367 276.539 174.873 281.019 173.66C285.499 172.353 290.166 171.7 295.019 171.7ZM298.659 211.74C289.326 212.113 282.839 213.607 279.199 216.22C275.653 218.833 273.879 222.52 273.879 227.28C273.879 231.48 275.139 234.56 277.659 236.52C280.273 238.48 283.586 239.46 287.599 239.46C293.946 239.46 299.219 237.733 303.419 234.28C307.619 230.733 309.719 225.32 309.719 218.04V211.32L298.659 211.74ZM357.396 248H345.076V141.6H357.396V248ZM393.35 197.18C393.35 198.673 393.256 200.633 393.07 203.06C392.976 205.487 392.883 207.587 392.79 209.36H393.35C393.91 208.613 394.75 207.54 395.87 206.14C396.99 204.74 398.11 203.34 399.23 201.94C400.443 200.447 401.47 199.233 402.31 198.3L426.25 172.96H440.67L410.29 205.02L442.77 248H427.93L401.89 213L393.35 220.42V248H381.17V141.6H393.35V197.18Z" fill="#484848" fill-opacity="0.3"/>
</svg>
