<svg width="265" height="157" viewBox="0 0 265 157" fill="none" xmlns="http://www.w3.org/2000/svg">
<path d="M108.201 95.7549C107.27 95.7549 106.563 95.5311 106.08 95.0835C105.596 94.6538 105.346 94.1077 105.328 93.4453C105.31 92.8008 105.534 92.1652 105.999 91.5386C106.411 91.0194 106.903 90.348 107.476 89.5244C108.049 88.7188 108.622 87.8683 109.195 86.9731C109.768 86.078 110.26 85.2365 110.672 84.4487C107.843 83.1418 105.363 81.4409 103.233 79.3462C101.12 77.2515 99.4731 74.8882 98.2915 72.2563C97.1278 69.6245 96.5459 66.8405 96.5459 63.9043C96.5459 60.5205 97.3247 57.3516 98.8823 54.3975C100.458 51.4434 102.633 48.8563 105.408 46.6362C108.201 44.3983 111.442 42.6527 115.13 41.3994C118.818 40.1283 122.775 39.4927 127 39.4927C131.225 39.4927 135.182 40.1283 138.87 41.3994C142.558 42.6527 145.79 44.3983 148.565 46.6362C151.358 48.8563 153.533 51.4434 155.091 54.3975C156.666 57.3516 157.454 60.5205 157.454 63.9043C157.454 66.7152 156.917 69.3739 155.843 71.8804C154.786 74.369 153.274 76.6338 151.304 78.6748C149.353 80.7158 147.016 82.4704 144.295 83.9385C141.591 85.3887 138.584 86.4897 135.271 87.2417C131.959 87.9937 128.432 88.3159 124.69 88.2085C122.882 89.5155 120.931 90.7419 118.836 91.8877C116.741 93.0335 114.745 93.9645 112.847 94.6807C110.949 95.3968 109.401 95.7549 108.201 95.7549ZM111.021 91.2969C111.827 90.9567 112.847 90.4375 114.083 89.7393C115.318 89.041 116.598 88.2622 117.923 87.4028C119.248 86.5614 120.456 85.7467 121.548 84.959C122.05 84.5651 122.533 84.2786 122.999 84.0996C123.482 83.9027 124.001 83.8042 124.556 83.8042C125.093 83.8221 125.568 83.84 125.979 83.8579C126.391 83.8579 126.731 83.8579 127 83.8579C130.617 83.8579 134 83.3387 137.151 82.3003C140.302 81.2619 143.06 79.8296 145.423 78.0034C147.804 76.1772 149.666 74.0557 151.009 71.6387C152.352 69.2217 153.023 66.6436 153.023 63.9043C153.023 61.1471 152.352 58.569 151.009 56.1699C149.666 53.7529 147.804 51.6313 145.423 49.8052C143.06 47.9611 140.302 46.5199 137.151 45.4814C134 44.443 130.617 43.9238 127 43.9238C123.383 43.9238 120 44.443 116.849 45.4814C113.698 46.5199 110.931 47.9611 108.55 49.8052C106.187 51.6313 104.334 53.7529 102.991 56.1699C101.666 58.569 101.004 61.1471 101.004 63.9043C101.004 66.2855 101.523 68.5503 102.562 70.6987C103.6 72.8472 105.104 74.8166 107.073 76.6069C109.061 78.3794 111.46 79.9191 114.271 81.2261C115.13 81.6379 115.631 82.1392 115.774 82.73C115.918 83.3208 115.801 83.9653 115.425 84.6636C114.96 85.5229 114.271 86.5614 113.357 87.7788C112.444 89.0142 111.612 90.0973 110.86 91.0283C110.788 91.1178 110.77 91.1895 110.806 91.2432C110.842 91.3148 110.914 91.3327 111.021 91.2969Z" fill="#FF9500"/>
<path d="M161.545 91.402C162.476 91.402 163.183 91.1782 163.666 90.7306C164.15 90.3009 164.4 89.7548 164.418 89.0924C164.436 88.4479 164.212 87.8123 163.747 87.1857C163.335 86.6665 162.843 85.9951 162.27 85.1715C161.697 84.3658 161.124 83.5154 160.551 82.6202C159.978 81.7251 159.486 80.8836 159.074 80.0958C161.903 78.7889 164.382 77.088 166.513 74.9933C168.625 72.8986 170.273 70.5353 171.454 67.9034C172.618 65.2716 173.2 62.4876 173.2 59.5514C173.2 56.1676 172.421 52.9987 170.863 50.0446C169.288 47.0905 167.113 44.5034 164.337 42.2833C161.545 40.0454 158.304 38.2998 154.616 37.0465C150.928 35.7753 146.971 35.1398 142.746 35.1398C138.52 35.1398 134.564 35.7753 130.876 37.0465C127.187 38.2998 123.956 40.0454 121.181 42.2833C118.388 44.5034 116.212 47.0905 114.655 50.0446C113.079 52.9987 112.292 56.1676 112.292 59.5514C112.292 62.3623 112.829 65.021 113.903 67.5275C114.959 70.0161 116.472 72.2809 118.441 74.3219C120.393 76.3629 122.729 78.1175 125.451 79.5856C128.154 81.0358 131.162 82.1368 134.474 82.8888C137.786 83.6407 141.313 83.963 145.055 83.8556C146.864 85.1626 148.815 86.389 150.91 87.5348C153.004 88.6806 155.001 89.6116 156.899 90.3278C158.796 91.0439 160.345 91.402 161.545 91.402ZM158.725 86.944C157.919 86.6038 156.899 86.0846 155.663 85.3864C154.428 84.6881 153.148 83.9093 151.823 83.0499C150.498 82.2085 149.289 81.3938 148.197 80.6061C147.696 80.2122 147.213 79.9257 146.747 79.7467C146.264 79.5498 145.745 79.4513 145.19 79.4513C144.652 79.4692 144.178 79.4871 143.766 79.505C143.354 79.505 143.014 79.505 142.746 79.505C139.129 79.505 135.745 78.9858 132.594 77.9474C129.443 76.909 126.686 75.4767 124.323 73.6505C121.942 71.8243 120.08 69.7028 118.737 67.2858C117.394 64.8688 116.723 62.2906 116.723 59.5514C116.723 56.7942 117.394 54.2161 118.737 51.817C120.08 49.4 121.942 47.2784 124.323 45.4523C126.686 43.6082 129.443 42.167 132.594 41.1285C135.745 40.0901 139.129 39.5709 142.746 39.5709C146.362 39.5709 149.746 40.0901 152.897 41.1285C156.048 42.167 158.814 43.6082 161.195 45.4523C163.559 47.2784 165.412 49.4 166.754 51.817C168.079 54.2161 168.742 56.7942 168.742 59.5514C168.742 61.9326 168.223 64.1974 167.184 66.3458C166.146 68.4943 164.642 70.4637 162.672 72.254C160.685 74.0265 158.286 75.5662 155.475 76.8732C154.616 77.285 154.115 77.7863 153.971 78.3771C153.828 78.9679 153.944 79.6124 154.32 80.3107C154.786 81.17 155.475 82.2085 156.388 83.4259C157.301 84.6613 158.134 85.7444 158.886 86.6754C158.957 86.7649 158.975 86.8365 158.94 86.8903C158.904 86.9619 158.832 86.9798 158.725 86.944Z" fill="#FF9500"/>
<path d="M153 64.147C153 75.4689 141.359 84.647 127 84.647C112.641 84.647 101 75.4689 101 64.147C101 52.8252 112.641 43.647 127 43.647C141.359 43.647 153 52.8252 153 64.147Z" fill="white"/>
<circle cx="111" cy="63.647" r="4.75" stroke="#FF9500" stroke-width="2.5"/>
<circle cx="128" cy="63.647" r="4.75" stroke="#FF9500" stroke-width="2.5"/>
<path d="M148.75 63.647C148.75 66.2704 146.623 68.397 144 68.397C141.377 68.397 139.25 66.2704 139.25 63.647C139.25 61.0237 141.377 58.897 144 58.897C146.623 58.897 148.75 61.0237 148.75 63.647Z" stroke="#FF9500" stroke-width="2.5"/>
<path d="M37.0002 112.2V110.3H64.3502V112.2H51.7502V146H49.5502V112.2H37.0002ZM60.4428 133.15C60.4428 131.317 60.6928 129.6 61.1928 128C61.7261 126.367 62.4928 124.933 63.4928 123.7C64.4928 122.467 65.7261 121.5 67.1928 120.8C68.6594 120.067 70.3428 119.7 72.2428 119.7C74.1428 119.7 75.8261 120.067 77.2928 120.8C78.7594 121.5 79.9928 122.467 80.9928 123.7C81.9928 124.933 82.7428 126.367 83.2428 128C83.7761 129.6 84.0428 131.317 84.0428 133.15C84.0428 134.983 83.7761 136.717 83.2428 138.35C82.7428 139.983 81.9928 141.417 80.9928 142.65C79.9928 143.85 78.7594 144.817 77.2928 145.55C75.8261 146.25 74.1428 146.6 72.2428 146.6C70.3428 146.6 68.6594 146.25 67.1928 145.55C65.7261 144.817 64.4928 143.85 63.4928 142.65C62.4928 141.417 61.7261 139.983 61.1928 138.35C60.6928 136.717 60.4428 134.983 60.4428 133.15ZM62.3428 133.15C62.3428 134.683 62.5594 136.167 62.9928 137.6C63.4261 139 64.0594 140.25 64.8928 141.35C65.7261 142.45 66.7594 143.333 67.9928 144C69.2261 144.633 70.6428 144.95 72.2428 144.95C73.8428 144.95 75.2594 144.633 76.4928 144C77.7261 143.333 78.7594 142.45 79.5928 141.35C80.4261 140.25 81.0594 139 81.4928 137.6C81.9261 136.167 82.1428 134.683 82.1428 133.15C82.1428 131.617 81.9261 130.15 81.4928 128.75C81.0594 127.317 80.4261 126.05 79.5928 124.95C78.7594 123.85 77.7261 122.983 76.4928 122.35C75.2594 121.683 73.8428 121.35 72.2428 121.35C70.6428 121.35 69.2261 121.683 67.9928 122.35C66.7594 122.983 65.7261 123.85 64.8928 124.95C64.0594 126.05 63.4261 127.317 62.9928 128.75C62.5594 130.15 62.3428 131.617 62.3428 133.15ZM87.2982 133.15C87.2982 131.317 87.5482 129.6 88.0482 128C88.5816 126.367 89.3482 124.933 90.3482 123.7C91.3482 122.467 92.5816 121.5 94.0482 120.8C95.5149 120.067 97.1982 119.7 99.0982 119.7C100.998 119.7 102.682 120.067 104.148 120.8C105.615 121.5 106.848 122.467 107.848 123.7C108.848 124.933 109.598 126.367 110.098 128C110.632 129.6 110.898 131.317 110.898 133.15C110.898 134.983 110.632 136.717 110.098 138.35C109.598 139.983 108.848 141.417 107.848 142.65C106.848 143.85 105.615 144.817 104.148 145.55C102.682 146.25 100.998 146.6 99.0982 146.6C97.1982 146.6 95.5149 146.25 94.0482 145.55C92.5816 144.817 91.3482 143.85 90.3482 142.65C89.3482 141.417 88.5816 139.983 88.0482 138.35C87.5482 136.717 87.2982 134.983 87.2982 133.15ZM89.1982 133.15C89.1982 134.683 89.4149 136.167 89.8482 137.6C90.2816 139 90.9149 140.25 91.7482 141.35C92.5816 142.45 93.6149 143.333 94.8482 144C96.0816 144.633 97.4982 144.95 99.0982 144.95C100.698 144.95 102.115 144.633 103.348 144C104.582 143.333 105.615 142.45 106.448 141.35C107.282 140.25 107.915 139 108.348 137.6C108.782 136.167 108.998 134.683 108.998 133.15C108.998 131.617 108.782 130.15 108.348 128.75C107.915 127.317 107.282 126.05 106.448 124.95C105.615 123.85 104.582 122.983 103.348 122.35C102.115 121.683 100.698 121.35 99.0982 121.35C97.4982 121.35 96.0816 121.683 94.8482 122.35C93.6149 122.983 92.5816 123.85 91.7482 124.95C90.9149 126.05 90.2816 127.317 89.8482 128.75C89.4149 130.15 89.1982 131.617 89.1982 133.15ZM115.454 110.3H117.354V133.95L133.204 120.3H135.954L124.704 129.9L136.754 146H134.154L123.204 131.35L117.354 136.3V146H115.454V110.3ZM148.914 112.2V110.3H176.264V112.2H163.664V146H161.464V112.2H148.914ZM190.607 140.9H190.507C190.207 141.667 189.774 142.4 189.207 143.1C188.64 143.767 187.94 144.367 187.107 144.9C186.307 145.433 185.39 145.85 184.357 146.15C183.324 146.45 182.19 146.6 180.957 146.6C178.224 146.6 176.107 146.017 174.607 144.85C173.107 143.65 172.357 141.817 172.357 139.35C172.357 137.85 172.657 136.633 173.257 135.7C173.857 134.733 174.607 133.983 175.507 133.45C176.44 132.883 177.457 132.483 178.557 132.25C179.69 132.017 180.774 131.85 181.807 131.75L184.757 131.5C186.124 131.4 187.19 131.25 187.957 131.05C188.757 130.817 189.357 130.517 189.757 130.15C190.157 129.75 190.407 129.25 190.507 128.65C190.607 128.05 190.657 127.3 190.657 126.4C190.657 125.7 190.524 125.05 190.257 124.45C189.99 123.85 189.574 123.317 189.007 122.85C188.44 122.383 187.707 122.017 186.807 121.75C185.907 121.483 184.807 121.35 183.507 121.35C181.207 121.35 179.34 121.917 177.907 123.05C176.507 124.183 175.74 125.9 175.607 128.2H173.707C173.84 125.367 174.74 123.25 176.407 121.85C178.107 120.417 180.507 119.7 183.607 119.7C186.707 119.7 188.957 120.317 190.357 121.55C191.79 122.75 192.507 124.333 192.507 126.3V141.25C192.507 141.617 192.507 141.983 192.507 142.35C192.54 142.717 192.607 143.05 192.707 143.35C192.807 143.65 192.974 143.9 193.207 144.1C193.44 144.267 193.774 144.35 194.207 144.35C194.54 144.35 195.007 144.3 195.607 144.2V145.8C195.107 145.933 194.59 146 194.057 146C193.29 146 192.674 145.9 192.207 145.7C191.774 145.5 191.44 145.233 191.207 144.9C190.974 144.567 190.807 144.183 190.707 143.75C190.64 143.283 190.607 142.783 190.607 142.25V140.9ZM190.607 131.4C190.14 131.967 189.424 132.35 188.457 132.55C187.524 132.75 186.474 132.9 185.307 133L182.107 133.3C181.174 133.4 180.24 133.55 179.307 133.75C178.374 133.917 177.524 134.217 176.757 134.65C176.024 135.083 175.424 135.683 174.957 136.45C174.49 137.183 174.257 138.15 174.257 139.35C174.257 141.25 174.857 142.667 176.057 143.6C177.257 144.5 178.907 144.95 181.007 144.95C183.174 144.95 184.89 144.567 186.157 143.8C187.424 143 188.39 142.1 189.057 141.1C189.724 140.067 190.14 139.083 190.307 138.15C190.507 137.183 190.607 136.533 190.607 136.2V131.4ZM200.907 110.3V146H199.007V110.3H200.907ZM207.055 110.3H208.955V133.95L224.805 120.3H227.555L216.305 129.9L228.355 146H225.755L214.805 131.35L208.955 136.3V146H207.055V110.3Z" fill="#484848"/>
</svg>
